# xmcd
#
# Track frame offsets:
# 150
# 14280
# 30712
# 43497
# 59927
# 76052
# 91922
# 106185
# 121912
# 135770
# 151142
# 166909
# 182532
# 197420
# 211077
# 227280
# 242905
# 256335
# 271690
# 287072
# 301300
# 318015
#
# Disc length: 4410 seconds
#
#
# Revision: 0
# Processed by: cddbd v1.5.1PL0 Copyright (c) Steve Scherf et al.
# Submitted via: FreeRIP 2.90 
#
DISCID=12113816
DTITLE=Max van Praag - De onvergetelijke vol.2
DYEAR=1988
DGENRE=Folk
TTITLE0=Rozen zo rood
TTITLE1=Wilde rozen
TTITLE2=Grootvaders klok
TTITLE3=Mijn dromenland
TTITLE4=Waarom
TTITLE5=Wij gaan weer varen
TTITLE6=In de Jan Plezier
TTITLE7=Dat briefje
TTITLE8=Waarom huil je, kleine Louise?
TTITLE9=Ben je in Rotterdam geboren
TTITLE10=Lang zal ze leven (Dat stond er op die taart)
TTITLE11=Eenmaal
TTITLE12=In de kleine diligence
TTITLE13=Wat kan ik er nou aan doen
TTITLE14=Ik hoor bij jou en jij bij mij
TTITLE15=Als na het bal
TTITLE16=De tijd is kort
TTITLE17=Als de bollen weer in bloei staan
TTITLE18=Toreador
TTITLE19=Waarom kijk je toch zo kwaad, Marianne?
TTITLE20=Je moet niet huilen
TTITLE21=Wanneer de havenlichtjes branden
EXTD=
EXTT0=
EXTT1=
EXTT2=
EXTT3=
EXTT4=
EXTT5=
EXTT6=
EXTT7=
EXTT8=
EXTT9=
EXTT10=
EXTT11=
EXTT12=
EXTT13=
EXTT14=
EXTT15=
EXTT16=
EXTT17=
EXTT18=
EXTT19=
EXTT20=
EXTT21=
PLAYORDER=
